<svg width="648" height="648" viewBox="0 0 648 648" fill="none" xmlns="http://www.w3.org/2000/svg">
<g clip-path="url(#clip0_119_13)">
<rect width="648" height="648" rx="240" fill="white"/>
<rect width="648" height="648" fill="black"/>
<path d="M369.782 254C366.998 254 364.558 251.988 364.079 249.151C363.555 245.998 365.695 243.011 368.839 242.485C417.171 234.484 458.918 227.578 473.721 209.157C475.727 206.665 479.364 206.275 481.849 208.287C484.334 210.298 484.723 213.946 482.717 216.438C465.145 238.297 423.473 245.188 370.725 253.925C370.41 253.985 370.096 254 369.782 254Z" fill="url(#paint0_linear_119_13)"/>
<path d="M359.788 230C357.285 230 354.992 228.385 354.242 225.911C353.328 222.889 355.082 219.704 358.139 218.8C392.881 208.607 437.544 191.599 453.491 178.34C455.934 176.31 459.591 176.621 461.644 179.036C463.698 181.451 463.383 185.066 460.94 187.096C443.629 201.481 398.486 218.889 361.421 229.763C360.867 229.926 360.312 230 359.773 230H359.788Z" fill="url(#paint1_linear_119_13)"/>
<path d="M208.534 485.985L197 485.492C198.165 458.378 208.19 433.73 226.806 412.206C234.201 403.656 242.702 396.228 250.904 389.038C263.604 377.932 275.586 367.44 283.668 353.285C293.081 336.813 299.878 317.591 305.735 291L317 293.481C313.205 310.73 306.661 336.29 293.693 359.024C284.654 374.853 271.358 386.482 258.509 397.737C250.591 404.673 242.403 411.832 235.531 419.784C218.663 439.275 209.58 461.561 208.519 486L208.534 485.985Z" fill="url(#paint2_linear_119_13)"/>
<path d="M387.086 402.034C386.34 401.646 377.108 421.791 376.302 423.82C373.841 430.058 371.873 436.519 370.829 443.13C369.188 453.546 370.053 464.335 374.886 473.855C377.466 478.929 381.329 482.869 384.849 487.286C388.115 491.389 390.681 496.105 393.097 500.731C394.156 502.76 394.663 505.073 394.245 507.326C392.888 514.713 386.206 509.803 386.206 509.803C380.881 500.313 374.199 491.598 366.19 484.167C346.83 466.2 317.418 448.353 283.292 430.55C282.636 430.207 281.846 430.267 281.249 430.7C274.269 435.937 236.638 461.052 236.638 461.052C231.15 464.797 223.11 471.557 218.904 475.183C217.1 476.735 215.37 478.347 213.804 480.138C208.852 485.778 204.661 492.046 200.992 498.567C198.053 503.775 193.743 517.295 185.286 509.774C172.385 498.313 162.779 482.883 156.888 466.902C144.717 433.833 149.773 398.064 163.48 366.265C169.595 352.088 179.887 339.195 189.537 327.272C209.717 302.486 226.407 275.342 232.746 242.931C233.297 240.081 233.864 237.201 234.625 234.395C248.988 182.047 282.368 149.546 327.873 138.041C381.746 126.312 446.791 149.337 476.71 192.881C491.372 213.459 496.637 237.201 493.43 263.792C493.221 265.583 492.848 267.374 492.401 269.12L489.358 280.908C488.627 283.729 488.135 286.609 488.016 289.504C487.822 293.801 488.135 298.039 488.97 302.218C489.209 303.426 489.522 304.605 489.835 305.799C491.461 311.947 496.816 332.018 497.696 334.375C499.65 346.671 492.147 352.626 476.561 353.148C473.459 353.894 472.922 355.58 474.324 357.983C476.815 365.787 474.652 371.861 466.493 375.711C466.285 375.815 466.121 376.009 466.121 376.248C466.121 376.874 466.314 377.516 466.598 378.203C467.702 380.829 467.955 383.843 466.777 386.44C466.389 387.275 465.897 388.066 465.3 388.798L461.139 393.319C460.617 393.886 460.334 394.617 460.334 395.378C460.14 408.659 456.351 418.299 446.642 422C443.644 423.149 439.706 423.477 436.44 423.119C436.067 423.074 435.709 423.015 435.336 422.94C392.112 413.912 341.774 378.382 337.106 346.403C338.001 340.24 342.684 340.135 345.145 344.642C358.091 372.935 386.579 395.393 429.087 410.405C441.735 414.882 449.386 411.166 449.401 399.855C449.848 393.961 452.115 389.35 455.874 385.783C462.287 380.366 458.782 377.203 450.072 377.65C448.342 377.74 444.837 376.845 444.076 375.054C443.301 373.204 445.254 370.92 446.91 370.309C448.849 369.577 451.28 369.488 453.13 368.921C455.814 368.384 458.454 367.846 461.139 367.294C465.136 367.041 465.584 363.444 464.137 358.072C461.795 345.537 465.584 343.448 471.505 342.896C484.362 343.568 489.477 340.911 486.987 334.972L478.5 305.65C476.129 295.816 476.457 285.549 479.544 274.865C484.168 257.346 484.123 239.901 478.798 222.517L473.593 210.34C469.939 203.55 464.629 196.522 458.41 189.374L448.133 179.988C414.067 152.202 372.797 142.279 329.141 149.442C326.725 149.845 324.324 150.471 322.027 151.352C289.258 163.842 265.454 186.315 251.538 219.831C248.481 227.203 246.229 234.888 244.558 242.692C239.323 267.105 230.807 290.354 215.966 311.41C214.594 313.365 213.102 315.23 211.581 317.065C191.819 340.911 161.825 377.352 161.168 419.881C160.467 444.234 165.27 465.917 178.44 483.51L192.132 489.375L200.171 478.825L211.939 465.857C212.431 465.305 212.968 464.827 213.55 464.365C217.741 461.156 235.908 447.338 242.739 443.339C269.228 426.477 311.422 408.003 323.697 311.887C325.934 305.65 330.991 305.366 332.408 312.111C329.633 354.924 317.687 392.513 290.884 421.642C290.884 421.642 343.639 452.427 359.27 463.29C357.823 440.28 362.76 418.792 377.272 397.02L387.101 402.078L387.086 402.034Z" fill="url(#paint3_linear_119_13)"/>
<path d="M324 215.626C344.718 215.626 361.527 232.365 361.527 253.015C361.527 273.665 344.732 290.404 324 290.404C303.268 290.404 286.473 273.665 286.473 253.015C286.473 232.365 303.268 215.626 324 215.626ZM324 204C296.981 204 275 225.988 275 253C275 280.012 296.981 302 324 302C351.019 302 373 280.012 373 253C373 225.988 351.019 204 324 204Z" fill="url(#paint4_linear_119_13)"/>
<path d="M428.542 275.314C438.392 276.017 447.718 278.595 456.474 283.064C458.304 284.002 460.478 284.361 462.367 283.549C466.175 281.924 465.275 277.611 463.281 274.814C460.688 271.173 455.815 269.235 451.796 267.813C446.984 266.11 441.946 265.157 436.893 264.563C432.905 264.094 428.872 263.922 424.869 264.032C422.799 264.094 420.73 264.219 418.676 264.438C417.297 264.579 415.738 264.516 414.523 265.344C413.414 266.094 412.439 267.516 412.124 268.845C411.405 271.829 413.938 273.907 416.487 274.564C416.487 274.564 423.054 275.454 426.878 275.314C427.447 275.298 428.002 275.283 428.557 275.314H428.542Z" fill="url(#paint5_linear_119_13)"/>
<path d="M436.004 295.214C436.004 295.214 427.877 294.998 427.847 294.998C426.019 294.955 423.092 293.734 422.231 292.097C421.532 290.761 422.498 288.593 424.073 288.291C425.306 288.061 426.822 288.19 428.085 288.147C431.844 288.004 435.618 287.946 439.377 288.061C443.225 288.176 447.594 288.205 451.204 289.641C457.652 291.336 457.95 296.908 449.941 295.846C450.09 301.39 448.218 305.023 443.567 306C438.649 305.828 436.45 301.777 436.004 295.199V295.214Z" fill="url(#paint6_linear_119_13)"/>
<path d="M181.967 493.97C177.778 484.335 175.021 474.267 173.768 464.019C170.399 436.443 178.181 406.687 195.696 380.231C203.925 367.803 214.405 357.436 224.541 347.427C235.528 336.567 245.918 326.289 253.654 313.622C262.897 298.49 271.304 281.923 277.327 267L288 271.332C281.739 286.838 273.033 304.002 263.478 319.657C255.011 333.534 243.637 344.783 232.636 355.658C222.469 365.711 212.869 375.197 205.296 386.64C189.301 410.809 182.161 437.803 185.202 462.645C186.32 471.787 188.78 480.78 192.521 489.399L181.967 494V493.97Z" fill="url(#paint7_linear_119_13)"/>
</g>
<defs>
<linearGradient id="paint0_linear_119_13" x1="364.004" y1="230.505" x2="484.005" y2="230.505" gradientUnits="userSpaceOnUse">
<stop offset="0.22" stop-color="#68EEAF"/>
<stop offset="0.53" stop-color="#65EEAF"/>
<stop offset="0.92" stop-color="#89EAA0"/>
</linearGradient>
<linearGradient id="paint1_linear_119_13" x1="353.988" y1="203.496" x2="463.008" y2="203.496" gradientUnits="userSpaceOnUse">
<stop offset="0.22" stop-color="#68EEAF"/>
<stop offset="0.53" stop-color="#65EEAF"/>
<stop offset="0.92" stop-color="#89EAA0"/>
</linearGradient>
<linearGradient id="paint2_linear_119_13" x1="197" y1="388.485" x2="317.015" y2="388.485" gradientUnits="userSpaceOnUse">
<stop stop-color="#DEE871"/>
<stop offset="0.16" stop-color="#CCE979"/>
<stop offset="0.27" stop-color="#4FECAF"/>
<stop offset="0.38" stop-color="#4FECAF"/>
<stop offset="0.79" stop-color="#4FECAF"/>
</linearGradient>
<linearGradient id="paint3_linear_119_13" x1="222.961" y1="561.002" x2="423.77" y2="173.295" gradientUnits="userSpaceOnUse">
<stop offset="0.04" stop-color="#DEE871"/>
<stop offset="0.18" stop-color="#DEE66C"/>
<stop offset="0.3" stop-color="#5AEDAE"/>
<stop offset="0.94" stop-color="#89EAA0"/>
</linearGradient>
<linearGradient id="paint4_linear_119_13" x1="275" y1="253.015" x2="373" y2="253.015" gradientUnits="userSpaceOnUse">
<stop offset="0.34" stop-color="#4FECAF"/>
<stop offset="0.64" stop-color="#68EEAF"/>
</linearGradient>
<linearGradient id="paint5_linear_119_13" x1="411.989" y1="274.001" x2="464.991" y2="274.001" gradientUnits="userSpaceOnUse">
<stop offset="0.34" stop-color="#4FECAF"/>
<stop offset="0.64" stop-color="#68EEAF"/>
</linearGradient>
<linearGradient id="paint6_linear_119_13" x1="421.993" y1="296.995" x2="455.988" y2="296.995" gradientUnits="userSpaceOnUse">
<stop offset="0.34" stop-color="#4FECAF"/>
<stop offset="0.64" stop-color="#68EEAF"/>
</linearGradient>
<linearGradient id="paint7_linear_119_13" x1="173.008" y1="380.47" x2="288.015" y2="380.47" gradientUnits="userSpaceOnUse">
<stop stop-color="#DEE871"/>
<stop offset="0.18" stop-color="#CCE979"/>
<stop offset="0.25" stop-color="#4FECAF"/>
<stop offset="0.79" stop-color="#4FECAF"/>
</linearGradient>
<clipPath id="clip0_119_13">
<rect width="648" height="648" rx="240" fill="white"/>
</clipPath>
</defs>
</svg>
